<svg xmlns="http://www.w3.org/2000/svg" xmlns:xlink="http://www.w3.org/1999/xlink" version="1.1" style="enable-background:new 0 0 748.8 139.1;" xml:space="preserve" width="748.7999877929688" height="139.10000610351562"><rect id="backgroundrect" width="100%" height="100%" x="0" y="0" fill="none" stroke="none"/>

<g class="currentLayer" style=""><title>Layer 1</title><g id="svg_1" class="selected" stroke="#ffffff" stroke-opacity="1" fill="#ffffff" fill-opacity="1">
	<path d="M163.98717951774597,1.538461446762085 c-40.7,0 -70.4,30.1 -70.4,68.7 c0,39.5 29.8,70.4 70.4,70.4 c40.7,0 70.4,-30.9 70.4,-70.4 C234.38717951774598,31.738461446762084 204.68717951774596,1.538461446762085 163.98717951774597,1.538461446762085 zM163.98717951774597,110.63846144676208 c-20.1,0 -36.3,-17.3 -36.3,-40.3 c0,-22 16.2,-38.6 36.3,-38.6 s36.3,16.6 36.3,38.6 C200.38717951774598,93.33846144676208 184.18717951774596,110.63846144676208 163.98717951774597,110.63846144676208 z" id="svg_2" stroke="#ffffff" stroke-opacity="1" fill="#ffffff" fill-opacity="1"/>
	<path d="M327.38717951774595,1.538461446762085 c-40.7,0 -70.4,30.1 -70.4,68.7 c0,39.5 29.8,70.4 70.4,70.4 c40.7,0 70.4,-30.9 70.4,-70.4 C397.787179517746,31.738461446762084 368.087179517746,1.538461446762085 327.38717951774595,1.538461446762085 zM327.38717951774595,110.63846144676208 c-20.1,0 -36.3,-17.3 -36.3,-40.3 c0,-22 16.2,-38.6 36.3,-38.6 c20.1,0 36.3,16.6 36.3,38.6 C363.787179517746,93.33846144676208 347.587179517746,110.63846144676208 327.38717951774595,110.63846144676208 z" id="svg_3" stroke="#ffffff" stroke-opacity="1" fill="#ffffff" fill-opacity="1"/>
	<path d="M-0.5128204822540283,68.73846144676209 v69.2 h34.2 V68.23846144676209 c0,-19.5 9.4,-29.4 28.1,-29.4 c8.9,0 16.1,-7.2 16.1,-16.1 V3.838461446762085 h-9.5 C23.587179517745973,3.938461446762085 0.4871795177459717,25.438461446762084 -0.5128204822540283,68.73846144676209 z" id="svg_4" stroke="#ffffff" stroke-opacity="1" fill="#ffffff" fill-opacity="1"/>
	<path d="M560.187179517746,2.138461446762085 c-17.2,0 -30.4,3.5 -40,10.9 c-9.6,-7.6 -22.8,-11.4 -40,-11.4 c-38.3,0 -57.5,19 -57.5,57.3 v78.8 h34.2 V52.138461446762086 c0.30000000000000004,-13.9 7.9,-20.8 22.8,-20.8 c15,0 22.6,6.8 23.3,20.8 v85.6 h33.9 V52.638461446762086 c0.30000000000000004,-13.9 7.9,-20.8 22.8,-20.8 c15,0 22.5,6.8 23.3,20.8 V121.53846144676208 c0,10.6 5.6,16 16.7,16.7 h17.5 V59.33846144676208 C617.387179517746,21.138461446762086 598.387179517746,2.138461446762085 560.187179517746,2.138461446762085 z" id="svg_5" stroke="#ffffff" stroke-opacity="1" fill="#ffffff" fill-opacity="1"/>
	<path d="M739.487179517746,71.33846144676208 c-6.8,-6.8 -20.5,-12.7 -41.5,-17.2 c-16.1,-3.3 -24,-8.6 -24,-15.5 c0,-6.8 6.1,-10.4 18.2,-10.4 c8,0 13.6,2 16.6,5.7 c0.5,0.7000000000000001 1,1.3 1.4,2.1 c0.2,0.4 0.4,0.8 0.6000000000000001,1.3 c0.1,0.1 0.1,0.30000000000000004 0.2,0.4 c2,4.9 6.3,8.1 11.2,8.1 H744.487179517746 c-0.1,-0.8 -0.30000000000000004,-1.5 -0.4,-2.3 c-1.1,-12.9 -5.9,-23.1 -14.5,-30.5 c-0.8,-0.6000000000000001 -1.6,-1.2 -2.4,-1.8 c-0.1,-0.1 -0.1,-0.1 -0.2,-0.2 l0,0 c-9,-6.3 -20.7,-9.5 -35.2,-9.5 c-28.2,0.5 -49.2,14.2 -49.2,43.1 c0.2,21 14.2,34.2 41.5,39.5 c21.2,4.1 32,9.6 32,16.5 c0,8.6 -6.5,12.7 -19.6,12.7 c-15.2,0 -25,-5.1 -25.7,-19.8 h-31.7 c0,15.5 4.7,27.1 14,34.7 c8.4,7.9 21.5,11.9 38.7,11.9 c32.7,0 56.5,-12.2 56.5,-45.1 C748.087179517746,85.93846144676209 745.2871795177459,77.83846144676208 739.487179517746,71.33846144676208 z" id="svg_6" stroke="#ffffff" stroke-opacity="1" fill="#ffffff" fill-opacity="1"/>
</g></g></svg>