<svg width="748.8" height="139.1" xmlns="http://www.w3.org/2000/svg">

 <g>
  <title>background</title>
  <rect fill="none" id="canvas_background" height="402" width="582" y="-1" x="-1"/>
 </g>
 <g>
  <title>Layer 1</title>
  <g id="svg_1">
   <path id="svg_2" d="m164.5,0c-40.7,0 -70.4,30.1 -70.4,68.7c0,39.5 29.8,70.4 70.4,70.4c40.7,0 70.4,-30.9 70.4,-70.4c0,-38.5 -29.7,-68.7 -70.4,-68.7zm0,109.1c-20.1,0 -36.3,-17.3 -36.3,-40.3c0,-22 16.2,-38.6 36.3,-38.6s36.3,16.6 36.3,38.6c0.1,23 -16.1,40.3 -36.3,40.3z"/>
   <path stroke="null" transform="rotate(-0.23486824333667755 164.4000091552697,69.55000305175622) " id="svg_3" d="m164.400002,37.268289c-18.500566,0 -32.000979,13.970948 -32.000979,31.88718c0,18.333968 13.545869,32.676237 32.000979,32.676237c18.500566,0 32.000979,-14.342269 32.000979,-32.676237c0,-17.869817 -13.500413,-31.88718 -32.000979,-31.88718zm0,50.638885c-9.136643,0 -16.500505,-8.029814 -16.500505,-18.705289c0,-10.211324 7.363862,-17.916232 16.500505,-17.916232c9.136643,0 16.500505,7.704908 16.500505,17.916232c0.045456,10.675475 -7.318406,18.705289 -16.500505,18.705289z"/>
   <path stroke="null" id="svg_4" d="m0,67.716034l0,68.683966l41.615815,0l0,-69.180238c0,-19.354586 11.438265,-29.18076 34.193111,-29.18076c10.829847,0 19.591071,-7.146309 19.591071,-15.97994l0,-18.75906l-11.559949,0c-54.514284,0.099254 -82.623211,21.438926 -83.840048,64.416032z"/>
   <path stroke="null" id="svg_5" d="m375.216754,0.6c-16.138825,0 -28.524436,3.5 -37.532152,10.9c-9.007717,-7.6 -21.393327,-11.4 -37.532152,-11.4c-35.937036,0 -53.952469,19 -53.952469,57.3l0,78.8l32.08999,0l0,-85.6c0.281491,-13.9 7.4126,-20.8 21.393327,-20.8c14.074557,0 21.205666,6.8 21.862479,20.8l0,85.6l31.808499,0l0,-85.1c0.281491,-13.9 7.4126,-20.8 21.393327,-20.8c14.074557,0 21.111836,6.8 21.862479,20.8l0,68.9c0,10.6 5.254501,16 15.669674,16.7l16.420317,0l0,-78.9c0.187661,-38.2 -17.640112,-57.2 -53.483317,-57.2z"/>
   <path id="svg_6" d="m740,69.8c-6.8,-6.8 -20.5,-12.7 -41.5,-17.2c-16.1,-3.3 -24,-8.6 -24,-15.5c0,-6.8 6.1,-10.4 18.2,-10.4c8,0 13.6,2 16.6,5.7c0.5,0.7 1,1.3 1.4,2.1c0.2,0.4 0.4,0.8 0.6,1.3c0.1,0.1 0.1,0.3 0.2,0.4c2,4.9 6.3,8.1 11.2,8.1l22.3,0c-0.1,-0.8 -0.3,-1.5 -0.4,-2.3c-1.1,-12.9 -5.9,-23.1 -14.5,-30.5c-0.8,-0.6 -1.6,-1.2 -2.4,-1.8c-0.1,-0.1 -0.1,-0.1 -0.2,-0.2l0,0c-9,-6.3 -20.7,-9.5 -35.2,-9.5c-28.2,0.5 -49.2,14.2 -49.2,43.1c0.2,21 14.2,34.2 41.5,39.5c21.2,4.1 32,9.6 32,16.5c0,8.6 -6.5,12.7 -19.6,12.7c-15.2,0 -25,-5.1 -25.7,-19.8l-31.7,0c0,15.5 4.7,27.1 14,34.7c8.4,7.9 21.5,11.9 38.7,11.9c32.7,0 56.5,-12.2 56.5,-45.1c-0.2,-9.1 -3,-17.2 -8.8,-23.7z"/>
   <rect stroke="null" id="svg_7" height="23" width="89" y="3.987503" x="491.899994" fill-opacity="null" stroke-opacity="null" stroke-width="null" fill="null"/>
   <rect stroke="null" id="svg_8" height="127.473686" width="27" y="3.934865" x="481.899994" fill-opacity="null" stroke-opacity="null" stroke-width="null" fill="null"/>
   <rect id="svg_9" height="1" width="0" y="8.987503" x="453.899994" fill-opacity="null" stroke-opacity="null" stroke-width="null" stroke="null" fill="null"/>
   <rect stroke="null" id="svg_10" height="23" width="89" y="108.198135" x="494.005259" fill-opacity="null" stroke-opacity="null" stroke-width="null" fill="null"/>
   <rect id="svg_11" height="21.57897" width="55.263216" y="52.938143" x="497.368905" fill-opacity="null" stroke-opacity="null" stroke-width="null" stroke="null" fill="null"/>
  </g>
 </g>
</svg>